  0
SECTION
  2
HEADER
  9
$ACADVER
  1
AC1014
  9
$HANDSEED
  5
FFFF
  9
$MEASUREMENT
 70
     1
  0
ENDSEC
  0
SECTION
  2
TABLES
  0
TABLE
  2
VPORT
  5
8
330
0
100
AcDbSymbolTable
 70
     4
  0
VPORT
  5
2E
330
8
100
AcDbSymbolTableRecord
100
AcDbViewportTableRecord
  2
*ACTIVE
 70
     0
 10
0.0
 20
0.0
 11
1.0
 21
1.0
 12
210.0
 22
148.5
 13
0.0
 23
0.0
 14
10.0
 24
10.0
 15
10.0
 25
10.0
 16
0.0
 26
0.0
 36
1.0
 17
0.0
 27
0.0
 37
0.0
 40
341.0
 41
1.24
 42
50.0
 43
0.0
 44
0.0
 50
0.0
 51
0.0
 71
     0
 72
   100
 73
     1
 74
     3
 75
     0
 76
     0
 77
     0
 78
     0
  0
ENDTAB
  0
TABLE
  2
LTYPE
  5
5
330
0
100
AcDbSymbolTable
 70
     1
  0
LTYPE
  5
14
330
5
100
AcDbSymbolTableRecord
100
AcDbLinetypeTableRecord
  2
BYBLOCK
 70
     0
  3

 72
    65
 73
     0
 40
0.0
  0
LTYPE
  5
15
330
5
100
AcDbSymbolTableRecord
100
AcDbLinetypeTableRecord
  2
BYLAYER
 70
     0
  3

 72
    65
 73
     0
 40
0.0
  0
LTYPE
  5
16
330
5
100
AcDbSymbolTableRecord
100
AcDbLinetypeTableRecord
  2
CONTINUOUS
 70
     0
  3
Solid line
 72
    65
 73
     0
 40
0.0
  0
ENDTAB
  0
TABLE
  2
LAYER
  5
2
100
AcDbSymbolTable
 70
2
  0
LAYER
  5
50
100
AcDbSymbolTableRecord
100
AcDbLayerTableRecord
  2
0
 70
0
  6
CONTINUOUS
  0
LAYER
  5
51
100
AcDbSymbolTableRecord
100
AcDbLayerTableRecord
  2
Layer_1
 70
0
  6
CONTINUOUS
  0
ENDTAB
  0
TABLE
  2
STYLE
  5
3
330
0
100
AcDbSymbolTable
 70
     1
  0
STYLE
  5
11
330
3
100
AcDbSymbolTableRecord
100
AcDbTextStyleTableRecord
  2
STANDARD
 70
     0
 40
0.0
 41
1.0
 50
0.0
 71
     0
 42
2.5
  3
txt
  4

  0
ENDTAB
  0
TABLE
  2
VIEW
  5
6
330
0
100
AcDbSymbolTable
 70
     0
  0
ENDTAB
  0
TABLE
  2
UCS
  5
7
330
0
100
AcDbSymbolTable
 70
     0
  0
ENDTAB
  0
TABLE
  2
APPID
  5
9
330
0
100
AcDbSymbolTable
 70
     2
  0
APPID
  5
12
330
9
100
AcDbSymbolTableRecord
100
AcDbRegAppTableRecord
  2
ACAD
 70
     0
  0
ENDTAB
  0
TABLE
  2
DIMSTYLE
  5
A
330
0
100
AcDbSymbolTable
 70
     1
  0
DIMSTYLE
105
27
330
A
100
AcDbSymbolTableRecord
100
AcDbDimStyleTableRecord
  2
ISO-25
 70
     0
  3

  4

  5

  6

  7

 40
1.0
 41
2.5
 42
0.625
 43
3.75
 44
1.25
 45
0.0
 46
0.0
 47
0.0
 48
0.0
140
2.5
141
2.5
142
0.0
143
0.03937007874016
144
1.0
145
0.0
146
1.0
147
0.625
 71
     0
 72
     0
 73
     0
 74
     0
 75
     0
 76
     0
 77
     1
 78
     8
170
     0
171
     3
172
     1
173
     0
174
     0
175
     0
176
     0
177
     0
178
     0
270
     2
271
     2
272
     2
273
     2
274
     3
340
11
275
     0
280
     0
281
     0
282
     0
283
     0
284
     8
285
     0
286
     0
287
     3
288
     0
  0
ENDTAB
  0
TABLE
  2
BLOCK_RECORD
  5
1
330
0
100
AcDbSymbolTable
 70
     1
  0
BLOCK_RECORD
  5
1F
330
1
100
AcDbSymbolTableRecord
100
AcDbBlockTableRecord
  2
*MODEL_SPACE
  0
BLOCK_RECORD
  5
1B
330
1
100
AcDbSymbolTableRecord
100
AcDbBlockTableRecord
  2
*PAPER_SPACE
  0
ENDTAB
  0
ENDSEC
  0
SECTION
  2
BLOCKS
  0
BLOCK
  5
20
330
1F
100
AcDbEntity
  8
0
100
AcDbBlockBegin
  2
*MODEL_SPACE
 70
     0
 10
0.0
 20
0.0
 30
0.0
  3
*MODEL_SPACE
  1

  0
ENDBLK
  5
21
330
1F
100
AcDbEntity
  8
0
100
AcDbBlockEnd
  0
BLOCK
  5
1C
330
1B
100
AcDbEntity
 67
     1
  8
0
100
AcDbBlockBegin
  2
*PAPER_SPACE
  1

  0
ENDBLK
  5
1D
330
1B
100
AcDbEntity
 67
     1
  8
0
100
AcDbBlockEnd
  0
ENDSEC
  0
SECTION
  2
ENTITIES
  0
LWPOLYLINE
  5
100
100
AcDbEntity
  8
Layer_1
 62
7
100
AcDbPolyline
 90
86
 70
0
 10
123.683893
 20
87.462431
 30
0.0
 10
123.507504
 20
87.453612
 30
0.0
 10
123.331115
 20
87.444792
 30
0.0
 10
123.154726
 20
87.427153
 30
0.0
 10
122.978337
 20
87.400695
 30
0.0
 10
121.373198
 20
86.942084
 30
0.0
 10
120.023823
 20
85.971945
 30
0.0
 10
119.000768
 20
84.631389
 30
0.0
 10
118.392226
 20
83.079167
 30
0.0
 10
118.392226
 20
80.468612
 30
0.0
 10
118.392226
 20
77.849237
 30
0.0
 10
118.392226
 20
75.229861
 30
0.0
 10
118.392226
 20
72.619306
 30
0.0
 10
117.863060
 20
72.328264
 30
0.0
 10
117.395629
 20
71.966667
 30
0.0
 10
117.069310
 20
71.499236
 30
0.0
 10
116.937018
 20
70.925973
 30
0.0
 10
116.963476
 20
70.793681
 30
0.0
 10
117.007573
 20
70.670209
 30
0.0
 10
117.051671
 20
70.546736
 30
0.0
 10
117.113407
 20
70.432084
 30
0.0
 10
117.060490
 20
70.308611
 30
0.0
 10
117.025212
 20
70.176320
 30
0.0
 10
116.998754
 20
70.035209
 30
0.0
 10
116.989935
 20
69.894098
 30
0.0
 10
117.263337
 20
69.241459
 30
0.0
 10
117.757226
 20
68.747570
 30
0.0
 10
118.383407
 20
68.377153
 30
0.0
 10
119.036046
 20
68.103750
 30
0.0
 10
119.970907
 20
67.830348
 30
0.0
 10
120.932226
 20
67.618681
 30
0.0
 10
121.893546
 20
67.477570
 30
0.0
 10
122.872504
 20
67.398195
 30
0.0
 10
123.260560
 20
67.389375
 30
0.0
 10
123.648615
 20
67.380556
 30
0.0
 10
124.027851
 20
67.389375
 30
0.0
 10
124.415907
 20
67.407014
 30
0.0
 10
125.297851
 20
67.486389
 30
0.0
 10
126.170976
 20
67.609861
 30
0.0
 10
127.035282
 20
67.795070
 30
0.0
 10
127.890768
 20
68.024375
 30
0.0
 10
128.622782
 20
68.315417
 30
0.0
 10
129.328337
 20
68.694653
 30
0.0
 10
129.892782
 20
69.232639
 30
0.0
 10
130.175004
 20
69.964653
 30
0.0
 10
130.175004
 20
69.999931
 30
0.0
 10
130.166185
 20
70.026389
 30
0.0
 10
130.166185
 20
70.061667
 30
0.0
 10
130.166185
 20
70.096945
 30
0.0
 10
130.157365
 20
70.132223
 30
0.0
 10
130.148546
 20
70.158681
 30
0.0
 10
130.148546
 20
70.193959
 30
0.0
 10
130.139726
 20
70.229236
 30
0.0
 10
130.104449
 20
70.308611
 30
0.0
 10
130.069171
 20
70.387986
 30
0.0
 10
130.025074
 20
70.467361
 30
0.0
 10
129.980976
 20
70.537917
 30
0.0
 10
130.025074
 20
70.643750
 30
0.0
 10
130.060351
 20
70.758403
 30
0.0
 10
130.095629
 20
70.881875
 30
0.0
 10
130.113268
 20
71.005348
 30
0.0
 10
130.113268
 20
71.040625
 30
0.0
 10
130.104449
 20
71.067084
 30
0.0
 10
130.104449
 20
71.102361
 30
0.0
 10
130.104449
 20
71.137639
 30
0.0
 10
130.095629
 20
71.172917
 30
0.0
 10
130.095629
 20
71.199375
 30
0.0
 10
130.086810
 20
71.234653
 30
0.0
 10
130.086810
 20
71.269931
 30
0.0
 10
129.795768
 20
71.772639
 30
0.0
 10
129.390074
 20
72.178334
 30
0.0
 10
128.905004
 20
72.495834
 30
0.0
 10
128.367018
 20
72.751598
 30
0.0
 10
128.367018
 20
75.106389
 30
0.0
 10
128.367018
 20
77.452362
 30
0.0
 10
128.367018
 20
79.807153
 30
0.0
 10
128.367018
 20
82.161945
 30
0.0
 10
128.375837
 20
82.929237
 30
0.0
 10
128.287643
 20
83.687709
 30
0.0
 10
128.093615
 20
84.428542
 30
0.0
 10
127.767296
 20
85.125278
 30
0.0
 10
127.044101
 20
86.139514
 30
0.0
 10
126.065143
 20
86.871528
 30
0.0
 10
124.918615
 20
87.321320
 30
0.0
 10
123.683893
 20
87.462431
 30
0.0
 10
123.683893
 20
87.462431
 30
0.0
  0
LWPOLYLINE
  5
101
100
AcDbEntity
  8
Layer_1
 62
7
100
AcDbPolyline
 90
306
 70
0
 10
146.640907
 20
76.755625
 30
0.0
 10
145.679588
 20
76.702709
 30
0.0
 10
144.727088
 20
76.614514
 30
0.0
 10
143.783407
 20
76.499861
 30
0.0
 10
142.866185
 20
76.385209
 30
0.0
 10
140.864171
 20
75.370973
 30
0.0
 10
139.973407
 20
73.377778
 30
0.0
 10
139.691185
 20
70.987709
 30
0.0
 10
139.514796
 20
68.756389
 30
0.0
 10
139.303129
 20
66.313403
 30
0.0
 10
139.329588
 20
63.773403
 30
0.0
 10
138.985629
 20
61.409792
 30
0.0
 10
137.680351
 20
59.487153
 30
0.0
 10
135.563685
 20
59.857570
 30
0.0
 10
133.702782
 20
61.074653
 30
0.0
 10
131.885976
 20
62.512222
 30
0.0
 10
129.866324
 20
63.526459
 30
0.0
 10
128.587504
 20
64.073264
 30
0.0
 10
127.282226
 20
64.505417
 30
0.0
 10
125.950490
 20
64.822917
 30
0.0
 10
124.601115
 20
65.025764
 30
0.0
 10
124.160143
 20
65.069861
 30
0.0
 10
123.710351
 20
65.096320
 30
0.0
 10
123.269379
 20
65.122778
 30
0.0
 10
122.819587
 20
65.131598
 30
0.0
 10
119.591671
 20
64.911111
 30
0.0
 10
116.407851
 20
64.196736
 30
0.0
 10
113.356323
 20
63.050209
 30
0.0
 10
110.507643
 20
61.524445
 30
0.0
 10
108.620282
 20
61.850764
 30
0.0
 10
106.979865
 20
63.014931
 30
0.0
 10
105.286532
 20
64.205556
 30
0.0
 10
103.266879
 20
64.575973
 30
0.0
 10
101.494171
 20
64.699445
 30
0.0
 10
99.739101
 20
64.540695
 30
0.0
 10
98.248615
 20
63.835139
 30
0.0
 10
97.260837
 20
62.309375
 30
0.0
 10
95.902643
 20
59.963403
 30
0.0
 10
94.950143
 20
57.388125
 30
0.0
 10
93.927087
 20
54.883403
 30
0.0
 10
92.348407
 20
52.757917
 30
0.0
 10
90.372851
 20
52.793195
 30
0.0
 10
89.226323
 20
54.195486
 30
0.0
 10
88.511948
 20
56.197500
 30
0.0
 10
87.815212
 20
58.014306
 30
0.0
 10
86.774518
 20
60.386736
 30
0.0
 10
85.398684
 20
62.706250
 30
0.0
 10
83.502504
 20
64.346667
 30
0.0
 10
80.900768
 20
64.672986
 30
0.0
 10
79.101601
 20
65.113959
 30
0.0
 10
78.237295
 20
66.480973
 30
0.0
 10
78.122643
 20
68.297778
 30
0.0
 10
78.581254
 20
70.052848
 30
0.0
 10
78.951670
 20
71.755000
 30
0.0
 10
78.801740
 20
73.448334
 30
0.0
 10
78.007990
 20
74.859445
 30
0.0
 10
76.455768
 20
75.714931
 30
0.0
 10
73.801115
 20
76.543959
 30
0.0
 10
70.943615
 20
76.596875
 30
0.0
 10
68.474170
 20
75.573820
 30
0.0
 10
66.992504
 20
73.192570
 30
0.0
 10
65.845976
 20
69.929375
 30
0.0
 10
64.911115
 20
66.560348
 30
0.0
 10
63.905698
 20
63.217778
 30
0.0
 10
62.573962
 20
60.025139
 30
0.0
 10
60.748337
 20
59.540070
 30
0.0
 10
59.469517
 20
60.598403
 30
0.0
 10
58.658129
 20
62.415209
 30
0.0
 10
58.208337
 20
64.205556
 30
0.0
 10
57.220559
 20
67.318820
 30
0.0
 10
56.329795
 20
70.546736
 30
0.0
 10
55.103892
 20
73.589445
 30
0.0
 10
53.128337
 20
76.147084
 30
0.0
 10
50.702990
 20
76.605695
 30
0.0
 10
48.171809
 20
76.658611
 30
0.0
 10
45.702365
 20
76.235278
 30
0.0
 10
43.453406
 20
75.265139
 30
0.0
 10
41.275003
 20
71.746181
 30
0.0
 10
40.005003
 20
67.750973
 30
0.0
 10
38.832017
 20
63.711667
 30
0.0
 10
36.971114
 20
60.051597
 30
0.0
 10
34.836809
 20
60.086875
 30
0.0
 10
33.584448
 20
61.674375
 30
0.0
 10
32.878892
 20
63.949792
 30
0.0
 10
32.376184
 20
66.004723
 30
0.0
 10
31.573614
 20
68.721111
 30
0.0
 10
30.850420
 20
71.596250
 30
0.0
 10
29.747989
 20
74.233264
 30
0.0
 10
27.790073
 20
76.226459
 30
0.0
 10
26.890489
 20
76.508681
 30
0.0
 10
25.946809
 20
76.658611
 30
0.0
 10
24.985489
 20
76.711528
 30
0.0
 10
24.032989
 20
76.693889
 30
0.0
 10
21.616462
 20
76.376389
 30
0.0
 10
19.579170
 20
75.079931
 30
0.0
 10
18.362087
 20
73.086736
 30
0.0
 10
18.406184
 20
70.661389
 30
0.0
 10
20.972642
 20
60.413195
 30
0.0
 10
23.556739
 20
50.173820
 30
0.0
 10
26.343684
 20
39.987361
 30
0.0
 10
29.518684
 20
29.933194
 30
0.0
 10
31.220837
 20
27.578403
 30
0.0
 10
33.875489
 20
26.678819
 30
0.0
 10
36.909378
 20
26.828750
 30
0.0
 10
39.713962
 20
27.613681
 30
0.0
 10
41.574865
 20
30.365347
 30
0.0
 10
42.783128
 20
33.505069
 30
0.0
 10
43.700351
 20
36.803542
 30
0.0
 10
44.688128
 20
40.005000
 30
0.0
 10
45.358406
 20
42.086389
 30
0.0
 10
45.922851
 20
44.344167
 30
0.0
 10
46.831253
 20
46.293264
 30
0.0
 10
48.542226
 20
47.475070
 30
0.0
 10
50.262017
 20
46.275625
 30
0.0
 10
51.143962
 20
44.317708
 30
0.0
 10
51.681948
 20
42.077570
 30
0.0
 10
52.361045
 20
40.040278
 30
0.0
 10
53.357642
 20
36.759445
 30
0.0
 10
54.283684
 20
33.372778
 30
0.0
 10
55.527226
 20
30.162500
 30
0.0
 10
57.485142
 20
27.402014
 30
0.0
 10
59.866392
 20
26.731736
 30
0.0
 10
62.459309
 20
26.678819
 30
0.0
 10
64.902295
 20
27.357917
 30
0.0
 10
66.851392
 20
28.874861
 30
0.0
 10
68.765212
 20
34.192986
 30
0.0
 10
70.335073
 20
39.643403
 30
0.0
 10
71.913754
 20
45.076181
 30
0.0
 10
73.862851
 20
50.376667
 30
0.0
 10
75.362156
 20
51.302709
 30
0.0
 10
76.764448
 20
50.826459
 30
0.0
 10
77.875698
 20
49.494722
 30
0.0
 10
78.484240
 20
47.845486
 30
0.0
 10
80.195212
 20
43.338750
 30
0.0
 10
81.950282
 20
38.814375
 30
0.0
 10
83.431948
 20
34.219444
 30
0.0
 10
84.305073
 20
29.527500
 30
0.0
 10
83.361393
 20
27.693056
 30
0.0
 10
81.474032
 20
27.049236
 30
0.0
 10
79.304448
 20
26.678819
 30
0.0
 10
77.487643
 20
25.655764
 30
0.0
 10
76.173545
 20
23.909514
 30
0.0
 10
75.979518
 20
21.739931
 30
0.0
 10
76.517504
 20
19.464514
 30
0.0
 10
77.408268
 20
17.436042
 30
0.0
 10
80.283406
 20
15.151805
 30
0.0
 10
83.952295
 20
14.710833
 30
0.0
 10
87.665282
 20
15.733889
 30
0.0
 10
90.690351
 20
17.841736
 30
0.0
 10
94.138754
 20
22.930556
 30
0.0
 10
96.678754
 20
28.548542
 30
0.0
 10
98.980629
 20
34.298819
 30
0.0
 10
101.732296
 20
39.775695
 30
0.0
 10
103.549101
 20
40.234306
 30
0.0
 10
104.951393
 20
39.202431
 30
0.0
 10
106.009726
 20
37.465000
 30
0.0
 10
106.821115
 20
35.780486
 30
0.0
 10
109.943198
 20
31.767639
 30
0.0
 10
113.991323
 20
28.619097
 30
0.0
 10
118.700907
 20
26.802292
 30
0.0
 10
123.807365
 20
26.749375
 30
0.0
 10
127.299865
 20
27.181528
 30
0.0
 10
130.492504
 20
28.530903
 30
0.0
 10
133.394101
 20
30.506458
 30
0.0
 10
136.013476
 20
32.852431
 30
0.0
 10
137.742088
 20
33.311042
 30
0.0
 10
138.923893
 20
32.446736
 30
0.0
 10
139.691185
 20
30.894514
 30
0.0
 10
140.158615
 20
29.262917
 30
0.0
 10
142.222365
 20
27.446111
 30
0.0
 10
144.947574
 20
26.802292
 30
0.0
 10
147.910907
 20
26.722917
 30
0.0
 10
150.697851
 20
26.608264
 30
0.0
 10
155.813129
 20
26.652361
 30
0.0
 10
160.919588
 20
26.767014
 30
0.0
 10
166.034866
 20
26.925764
 30
0.0
 10
171.141324
 20
27.066875
 30
0.0
 10
172.631810
 20
29.007153
 30
0.0
 10
174.527991
 20
29.836181
 30
0.0
 10
176.635838
 20
29.606875
 30
0.0
 10
178.743685
 20
28.372153
 30
0.0
 10
182.571324
 20
27.066875
 30
0.0
 10
186.628268
 20
26.890486
 30
0.0
 10
190.764588
 20
27.128611
 30
0.0
 10
194.847991
 20
27.093333
 30
0.0
 10
197.079310
 20
27.031597
 30
0.0
 10
199.310630
 20
27.049236
 30
0.0
 10
201.453755
 20
27.402014
 30
0.0
 10
203.464588
 20
28.354514
 30
0.0
 10
205.334310
 20
28.134028
 30
0.0
 10
207.151116
 20
27.481389
 30
0.0
 10
208.985560
 20
26.899306
 30
0.0
 10
210.943477
 20
26.899306
 30
0.0
 10
212.927852
 20
27.005139
 30
0.0
 10
214.912227
 20
27.560764
 30
0.0
 10
216.349796
 20
28.742569
 30
0.0
 10
216.711394
 20
30.700486
 30
0.0
 10
217.170005
 20
36.018611
 30
0.0
 10
217.443408
 20
41.398472
 30
0.0
 10
217.840283
 20
46.751875
 30
0.0
 10
218.704588
 20
51.990625
 30
0.0
 10
220.053963
 20
52.802014
 30
0.0
 10
221.359241
 20
52.343403
 30
0.0
 10
222.267644
 20
51.091042
 30
0.0
 10
222.444033
 20
49.530000
 30
0.0
 10
222.849727
 20
44.450000
 30
0.0
 10
223.026116
 20
39.343542
 30
0.0
 10
223.158408
 20
34.245903
 30
0.0
 10
223.458269
 20
29.201181
 30
0.0
 10
225.742505
 20
27.454931
 30
0.0
 10
228.608824
 20
26.634722
 30
0.0
 10
231.563338
 20
26.811111
 30
0.0
 10
234.138616
 20
28.045833
 30
0.0
 10
235.144033
 20
32.208611
 30
0.0
 10
235.452713
 20
36.521320
 30
0.0
 10
235.505630
 20
40.878125
 30
0.0
 10
235.743755
 20
45.190833
 30
0.0
 10
235.902505
 20
47.298681
 30
0.0
 10
235.990699
 20
49.538820
 30
0.0
 10
236.484588
 20
51.593750
 30
0.0
 10
237.878061
 20
53.137153
 30
0.0
 10
239.871255
 20
52.546250
 30
0.0
 10
240.717922
 20
50.729445
 30
0.0
 10
240.911949
 20
48.401111
 30
0.0
 10
240.964866
 20
46.302083
 30
0.0
 10
241.097158
 20
41.742431
 30
0.0
 10
241.264727
 20
37.156320
 30
0.0
 10
241.643963
 20
32.605486
 30
0.0
 10
242.393616
 20
28.160486
 30
0.0
 10
244.448547
 20
27.260903
 30
0.0
 10
246.732783
 20
26.846389
 30
0.0
 10
249.061116
 20
26.855208
 30
0.0
 10
251.274797
 20
27.260903
 30
0.0
 10
252.588894
 20
28.142847
 30
0.0
 10
253.453200
 20
29.280556
 30
0.0
 10
253.823616
 20
30.656389
 30
0.0
 10
253.656047
 20
32.270347
 30
0.0
 10
253.541394
 20
38.981945
 30
0.0
 10
253.532575
 20
45.737639
 30
0.0
 10
253.100422
 20
52.431597
 30
0.0
 10
251.733408
 20
58.975625
 30
0.0
 10
249.246324
 20
62.168264
 30
0.0
 10
245.718547
 20
64.117361
 30
0.0
 10
241.670422
 20
64.964028
 30
0.0
 10
237.613477
 20
64.805278
 30
0.0
 10
235.241047
 20
64.161459
 30
0.0
 10
232.850977
 20
63.367709
 30
0.0
 10
230.478547
 20
63.129584
 30
0.0
 10
228.150213
 20
64.170278
 30
0.0
 10
223.158408
 20
64.602431
 30
0.0
 10
218.140144
 20
64.725903
 30
0.0
 10
213.104241
 20
64.611250
 30
0.0
 10
208.103616
 20
64.329028
 30
0.0
 10
206.313269
 20
63.517639
 30
0.0
 10
204.443546
 20
63.059028
 30
0.0
 10
202.626741
 20
63.244236
 30
0.0
 10
200.986324
 20
64.364306
 30
0.0
 10
198.975491
 20
64.646528
 30
0.0
 10
196.876463
 20
64.681806
 30
0.0
 10
194.795074
 20
64.408403
 30
0.0
 10
192.863616
 20
63.773403
 30
0.0
 10
191.734727
 20
60.730695
 30
0.0
 10
191.346671
 20
57.441042
 30
0.0
 10
191.276116
 20
54.072014
 30
0.0
 10
191.064449
 20
50.773542
 30
0.0
 10
190.879241
 20
47.845486
 30
0.0
 10
190.870421
 20
44.829236
 30
0.0
 10
190.544102
 20
41.901181
 30
0.0
 10
189.450491
 20
39.220070
 30
0.0
 10
187.792435
 20
38.558611
 30
0.0
 10
186.372505
 20
39.255347
 30
0.0
 10
185.411185
 20
40.745833
 30
0.0
 10
185.146602
 20
42.500903
 30
0.0
 10
184.652713
 20
47.351597
 30
0.0
 10
184.599796
 20
52.246389
 30
0.0
 10
184.485143
 20
57.123542
 30
0.0
 10
183.770768
 20
61.894861
 30
0.0
 10
182.897643
 20
63.323611
 30
0.0
 10
181.654102
 20
64.302570
 30
0.0
 10
180.137157
 20
64.778820
 30
0.0
 10
178.452643
 20
64.672986
 30
0.0
 10
176.662296
 20
64.672986
 30
0.0
 10
174.827852
 20
64.408403
 30
0.0
 10
173.355004
 20
63.588195
 30
0.0
 10
172.640629
 20
61.930139
 30
0.0
 10
171.970352
 20
56.700209
 30
0.0
 10
171.688129
 20
51.426181
 30
0.0
 10
171.555838
 20
46.143333
 30
0.0
 10
171.335352
 20
40.869306
 30
0.0
 10
169.395074
 20
39.299445
 30
0.0
 10
166.952088
 20
38.964306
 30
0.0
 10
164.306254
 20
39.149514
 30
0.0
 10
161.748615
 20
39.087778
 30
0.0
 10
159.182157
 20
39.140695
 30
0.0
 10
156.509865
 20
38.981945
 30
0.0
 10
154.066879
 20
39.334722
 30
0.0
 10
152.153060
 20
40.931042
 30
0.0
 10
152.153060
 20
49.309514
 30
0.0
 10
152.153060
 20
57.687986
 30
0.0
 10
152.153060
 20
66.066459
 30
0.0
 10
152.153060
 20
74.444931
 30
0.0
 10
151.024171
 20
75.626736
 30
0.0
 10
149.692435
 20
76.341111
 30
0.0
 10
148.210768
 20
76.685070
 30
0.0
 10
146.640907
 20
76.755625
 30
0.0
 10
146.640907
 20
76.755625
 30
0.0
  0
ENDSEC
  0
SECTION
  2
OBJECTS
  0
DICTIONARY
  5
C
330
0
100
AcDbDictionary
  3
ACAD_GROUP
350
D
  3
ACAD_MLINESTYLE
350
17
  0
DICTIONARY
  5
D
330
C
100
AcDbDictionary
  0
DICTIONARY
  5
1A
330
C
100
AcDbDictionary
  0
DICTIONARY
  5
17
330
C
100
AcDbDictionary
  3
STANDARD
350
18
  0
DICTIONARY
  5
19
330
C
100
AcDbDictionary
  0
ENDSEC
  0
EOF
